<svg width="16" height="16" viewBox="0 0 16 16" fill="none" xmlns="http://www.w3.org/2000/svg">
<path d="M4.03204 14.3999V14.1576L4.35805 14.1038V11.898L4.03204 11.8442V11.6018H5.33004C5.64738 11.6018 5.89071 11.6698 6.06005 11.8057C6.22938 11.9403 6.31404 12.132 6.31404 12.3807C6.31404 12.573 6.26405 12.7288 6.16405 12.848C6.06405 12.9673 5.92471 13.0493 5.74604 13.0942L6.23805 14.1172L6.44005 14.1519V14.3999H5.95404L5.37004 13.1384L4.75204 13.15V14.1038L5.07805 14.1576V14.3999H4.03204ZM4.75204 12.8519H5.29004C5.51005 12.8519 5.67005 12.8115 5.77004 12.7307C5.87005 12.6499 5.92005 12.532 5.92005 12.3769C5.92005 12.2294 5.87205 12.1127 5.77605 12.0269C5.68005 11.941 5.53138 11.898 5.33004 11.898H4.75204V12.8519ZM7.99205 14.4403C7.74136 14.4403 7.52536 14.3801 7.34405 14.2596C7.16408 14.139 7.02539 13.9724 6.92805 13.7596C6.8307 13.5455 6.78206 13.2993 6.78206 13.0211V12.9807C6.78206 12.7025 6.83006 12.457 6.92606 12.2442C7.02341 12.0301 7.16274 11.8628 7.34405 11.7422C7.52536 11.6204 7.74136 11.5596 7.99205 11.5596C8.25739 11.5596 8.47941 11.6204 8.65803 11.7422C8.83807 11.8628 8.97407 12.0301 9.06603 12.2442C9.15807 12.457 9.20402 12.7025 9.20402 12.9807V13.0211C9.20402 13.2993 9.15807 13.5455 9.06603 13.7596C8.97407 13.9724 8.83807 14.139 8.65803 14.2596C8.47941 14.3801 8.25739 14.4403 7.99205 14.4403ZM7.99205 14.1249C8.18539 14.1249 8.34136 14.0788 8.46008 13.9865C8.58002 13.8941 8.66808 13.7653 8.72402 13.5999C8.78008 13.4333 8.80805 13.2403 8.80805 13.0211V12.9769C8.80805 12.7589 8.77938 12.5679 8.72203 12.4038C8.66603 12.2384 8.57803 12.1095 8.45803 12.0172C8.33803 11.9236 8.1827 11.8769 7.99205 11.8769C7.81739 11.8769 7.66936 11.9236 7.54808 12.0172C7.42674 12.1108 7.3347 12.2403 7.27205 12.4057C7.20939 12.5698 7.17803 12.7602 7.17803 12.9769V13.0211C7.17803 13.239 7.20939 13.4313 7.27205 13.598C7.3347 13.7634 7.42674 13.8929 7.54808 13.9865C7.66936 14.0788 7.81739 14.1249 7.99205 14.1249ZM10.146 14.3999V14.1576L10.4721 14.1038V13.3807L9.57605 11.8807L9.33605 11.8442V11.5999H10.34V11.8442L10.0081 11.8807L10.626 12.9807L10.6681 13.0557L10.6701 13.0519L10.7101 12.9807L11.3581 11.8807L11.0141 11.8442V11.5999H11.9981V11.8442L11.7441 11.8807L10.8641 13.3519V14.1038L11.1901 14.1576V14.3999H10.146Z" fill="#E2B007" fill-opacity="0.75"/>
<path d="M2.854 10.2769L1.39 6.48943L1.04199 6.44327V6.07694H2.422V6.44327L2.023 6.50389L3.00099 9.17502L3.103 9.50671H3.12099L3.22899 9.17502L4.243 6.501L3.799 6.44327V6.07694H5.17599V6.44327L4.82499 6.48943L3.36099 10.2769H2.854ZM5.614 10.2769V9.91348L6.103 9.83268V6.52407L5.614 6.44327V6.07694H7.18297V6.44327L6.69401 6.52407V9.83268L7.18297 9.91348V10.2769H5.614ZM9.64601 10.3375C9.20799 10.3375 8.84198 10.2452 8.54796 10.0606C8.25599 9.87594 8.03596 9.62308 7.88799 9.30191C7.74201 8.9808 7.66899 8.61637 7.66899 8.20868V8.14807C7.66899 7.73656 7.74598 7.37115 7.90003 7.05195C8.05401 6.73078 8.275 6.47792 8.563 6.2933C8.851 6.10866 9.195 6.01636 9.595 6.01636C9.87699 6.01636 10.135 6.05866 10.369 6.14328C10.603 6.22789 10.797 6.33558 10.951 6.46635V7.37213H10.48L10.417 6.70869C10.215 6.56056 9.93996 6.48653 9.59199 6.48653C9.30598 6.48653 9.06399 6.55767 8.86598 6.70001C8.66803 6.84038 8.51801 7.03459 8.41599 7.28272C8.31398 7.53078 8.26297 7.8173 8.26297 8.14228V8.20868C8.26297 8.73748 8.38399 9.14806 8.62598 9.44037C8.86796 9.73077 9.21497 9.87594 9.667 9.87594C9.80697 9.87594 9.94399 9.85963 10.078 9.82695C10.212 9.79421 10.323 9.75194 10.411 9.7L10.477 9.1144H10.939V10.026C10.775 10.1241 10.579 10.201 10.351 10.2567C10.123 10.3106 9.88799 10.3375 9.64601 10.3375ZM11.542 10.2769V9.91348L12.031 9.83268V6.52407L11.542 6.44327V6.07694H14.776V7.08653H14.302L14.236 6.5154H12.622V7.88271H14.233V8.32979H12.622V9.84997H14.332L14.398 9.27022H14.869V10.2769H11.542Z" fill="#E2B007"/>
<path d="M4.19576 4.61539V4.3428L4.56251 4.28222V1.78775H3.82001L3.75476 2.22477H3.42175V1.46539H6.14425V2.22477H5.81576L5.74825 1.78775H5.00575V4.28222L5.3725 4.3428V4.61539H4.19576ZM6.55149 4.61539V4.3428L6.91828 4.28222V1.80073L6.55149 1.74015V1.46539H7.72826V1.74015L7.36148 1.80073V2.88895H8.92749V1.80073L8.56077 1.74015V1.46539H9.73748V1.74015L9.37076 1.80073V4.28222L9.73748 4.3428V4.61539H8.56077V4.3428L8.92749 4.28222V3.22429H7.36148V4.28222L7.72826 4.3428V4.61539H6.55149ZM10.102 4.61539V4.3428L10.4687 4.28222V1.80073L10.102 1.74015V1.46539H12.5275V2.22261H12.172L12.1225 1.79424H10.912V2.81972H12.1203V3.15506H10.912V4.2952H12.1945L12.244 3.86035H12.5973V4.61539H10.102Z" fill="#E2B007" fill-opacity="0.75"/>
</svg>
